<svg height="512" viewBox="0 0 64 64" width="512" xmlns="http://www.w3.org/2000/svg"><g id="Application"><path d="m48 34h-4a2 2 0 0 0 0 4h4a2 2 0 0 0 0-4z"/><path d="m48 40h-4a2 2 0 0 0 0 4h4a2 2 0 0 0 0-4z"/><path d="m17 47v-13a1 1 0 0 1 1-1h6a3 3 0 0 0 0-6h-7a3.009 3.009 0 0 0 -3 3v4l1.91 20h20.57l2.8-4h-19.28a3.009 3.009 0 0 1 -3-3z"/><path d="m40 42a3.967 3.967 0 0 1 1.38-3 3.951 3.951 0 0 1 0-6 3.951 3.951 0 0 1 0-6 3.985 3.985 0 0 1 2.62-7h1v-2h-2a1 1 0 0 1 -1-1v-10a1 1 0 0 1 1-1h2v-1a1 1 0 0 0 -1-1h-2.22l-.43 1.73a3 3 0 0 1 -2.91 2.27h-12.88a3 3 0 0 1 -2.91-2.27l-.43-1.73h-2.22a1 1 0 0 0 -1 1v4h4a1 1 0 0 1 1 1v12a1 1 0 0 1 -1 1h-4v2h5a5 5 0 0 1 0 10h-5v12a1 1 0 0 0 1 1h24a1 1 0 0 0 1-1v-1h-1a4 4 0 0 1 -4-4zm-17 4h-2v-2h2zm16 0h-14v-2h14z"/><path d="m16 56h20v4h-20z"/><path d="m25.56 6h12.88a1 1 0 0 0 .97-.76l.31-1.24h-15.44l.31 1.24a1 1 0 0 0 .97.76z"/><path d="m22 11h-18v10h18zm-16 2h2v2h-2zm14 6h-14v-2h14zm0-4h-10v-2h10z"/><path d="m42 24a2.006 2.006 0 0 0 2 2h4a2 2 0 0 0 0-4h-4a2.006 2.006 0 0 0 -2 2z"/><path d="m44 16h16v-8h-16zm8-5h6v2h-6zm-6 0h4v2h-4z"/><path d="m48 28h-4a2 2 0 0 0 0 4h4a2 2 0 0 0 0-4z"/></g></svg>